<svg width="32" height="32" viewBox="0 0 32 32" fill="none" xmlns="http://www.w3.org/2000/svg">
<path d="M13.3333 2.66667C11.6648 2.66756 10.0197 3.05989 8.53026 3.81212C7.04087 4.56436 5.74872 5.65551 4.75767 6.99788C3.76662 8.34026 3.10431 9.89641 2.82398 11.5413C2.54365 13.1861 2.65311 14.8738 3.14357 16.4687C3.63403 18.0636 4.49181 19.5211 5.64796 20.7242C6.80411 21.9273 8.22638 22.8424 9.80047 23.396C11.3746 23.9495 13.0565 24.126 14.7113 23.9114C16.366 23.6967 17.9472 23.0969 19.328 22.16L25.92 28.7467C26.1031 28.9432 26.3239 29.1008 26.5692 29.2101C26.8146 29.3194 27.0794 29.3782 27.3479 29.3829C27.6165 29.3877 27.8832 29.3383 28.1323 29.2377C28.3813 29.1371 28.6075 28.9874 28.7974 28.7974C28.9873 28.6075 29.1371 28.3813 29.2377 28.1323C29.3382 27.8832 29.3876 27.6165 29.3829 27.3479C29.3782 27.0794 29.3194 26.8146 29.2101 26.5692C29.1008 26.3239 28.9432 26.1031 28.7467 25.92L22.16 19.328C23.2497 17.7242 23.8816 15.8537 23.9878 13.9177C24.0941 11.9817 23.6706 10.0533 22.7629 8.3399C21.8552 6.62653 20.4976 5.19298 18.8362 4.19338C17.1748 3.19379 15.2723 2.66597 13.3333 2.66667ZM6.66666 13.3333C6.66666 11.5652 7.36904 9.86954 8.61928 8.61929C9.86953 7.36905 11.5652 6.66667 13.3333 6.66667C15.1014 6.66667 16.7971 7.36905 18.0474 8.61929C19.2976 9.86954 20 11.5652 20 13.3333C20 15.1014 19.2976 16.7971 18.0474 18.0474C16.7971 19.2976 15.1014 20 13.3333 20C11.5652 20 9.86953 19.2976 8.61928 18.0474C7.36904 16.7971 6.66666 15.1014 6.66666 13.3333Z" fill="#333333"/>
</svg>
