<?xml version="1.0" standalone="no"?>
<!DOCTYPE svg PUBLIC "-//W3C//DTD SVG 20010904//EN"
 "http://www.w3.org/TR/2001/REC-SVG-20010904/DTD/svg10.dtd">
<svg version="1.0" xmlns="http://www.w3.org/2000/svg"
 width="618.000000pt" height="618.000000pt" viewBox="0 0 618.000000 618.000000"
 preserveAspectRatio="xMidYMid meet">
<metadata>
Created by potrace 1.14, written by Peter Selinger 2001-2017
</metadata>
<g transform="translate(0.000000,618.000000) scale(0.100000,-0.100000)"
fill="#000000" stroke="none">
<path d="M2898 5465 c-2 -2 -28 -5 -59 -9 -148 -14 -346 -76 -479 -149 -162
-88 -342 -255 -456 -422 -125 -183 -217 -398 -268 -626 -5 -22 -21 -32 -108
-68 -376 -151 -382 -154 -400 -189 -13 -26 -14 -40 -6 -63 19 -54 36 -59 220
-59 93 0 168 -2 168 -5 0 -2 -4 -14 -10 -27 -5 -13 -44 -111 -86 -218 -73
-187 -76 -198 -71 -260 3 -36 7 -74 10 -85 3 -11 45 -168 92 -350 169 -641
156 -603 219 -630 52 -22 126 9 146 61 8 19 14 176 25 600 5 199 9 214 89 300
l45 49 2 -40 c1 -22 1 -43 0 -47 0 -3 8 -60 19 -125 45 -274 147 -546 303
-808 53 -89 133 -211 147 -225 3 -3 32 -41 64 -84 l59 -80 -49 29 c-86 50
-167 108 -217 154 -40 38 -55 45 -90 46 -73 2 -244 -51 -344 -106 -261 -143
-424 -353 -479 -614 -3 -16 -7 -113 -9 -215 -3 -194 4 -232 42 -244 10 -3 811
-6 1781 -8 l1762 -2 23 22 22 23 0 825 1 826 29 21 c45 31 121 111 150 156 60
96 89 245 70 356 -15 82 -62 192 -101 232 -7 7 -21 23 -31 36 -46 59 -188 138
-274 153 -432 75 -755 -362 -553 -746 36 -68 119 -162 167 -186 l27 -15 0
-365 c0 -290 -3 -363 -12 -357 -7 4 -46 30 -86 56 -130 86 -296 148 -404 149
-28 1 -47 -8 -85 -39 -47 -39 -131 -97 -207 -143 -46 -27 -43 -21 30 70 242
304 408 690 468 1090 23 151 24 480 2 585 -2 11 -7 40 -11 65 -11 66 -14 80
-20 101 -6 19 4 19 418 19 471 0 457 -2 476 66 17 59 -10 83 -155 143 -71 29
-142 59 -159 66 -16 7 -181 75 -365 150 -184 76 -336 139 -338 140 -2 2 -5 25
-8 51 -17 155 -74 343 -145 473 -151 276 -381 430 -724 487 -40 6 -262 14
-267 9z"/>
</g>
</svg>
